<svg width="39" height="30" viewBox="0 0 39 30" fill="none" xmlns="http://www.w3.org/2000/svg">
<path d="M19.5308 5.14367C16.2009 2.69597 11.8834 1.3445 7.41002 1.34956C5.28484 1.34956 3.2445 1.64753 1.34961 2.19711V25.7861C3.29625 25.2233 5.34577 24.9367 7.41002 24.9386C12.0664 24.9386 16.3148 26.3738 19.5308 28.7327M19.5308 5.14367C22.8607 2.69583 27.1782 1.34435 31.6517 1.34956C33.7769 1.34956 35.8172 1.64753 37.7121 2.19711V25.7861C35.7654 25.2233 33.7159 24.9367 31.6517 24.9386C27.1783 24.9335 22.8608 26.285 19.5308 28.7327M19.5308 5.14367V28.7327V5.14367Z" fill="#1A1616"/>
<path d="M19.5308 5.14367C16.2009 2.69597 11.8834 1.3445 7.41002 1.34956C5.28484 1.34956 3.2445 1.64753 1.34961 2.19711V25.7861C3.29625 25.2233 5.34577 24.9367 7.41002 24.9386C12.0664 24.9386 16.3148 26.3738 19.5308 28.7327M19.5308 5.14367C22.8607 2.69583 27.1782 1.34435 31.6517 1.34956C33.7769 1.34956 35.8172 1.64753 37.7121 2.19711V25.7861C35.7654 25.2233 33.7159 24.9367 31.6517 24.9386C27.1783 24.9335 22.8608 26.285 19.5308 28.7327M19.5308 5.14367V28.7327" stroke="#D0C6BD" stroke-width="2.05122" stroke-linecap="round" stroke-linejoin="round"/>
</svg>
