<svg width="36" height="28" viewBox="0 0 36 28" fill="none" xmlns="http://www.w3.org/2000/svg">
<path d="M17.8495 4.81347C14.8274 2.57879 10.9092 1.34494 6.84949 1.34956C4.92082 1.34956 3.06915 1.6216 1.34949 2.12335V23.6594C3.11612 23.1456 4.97612 22.8839 6.84949 22.8856C11.0753 22.8856 14.9308 24.1959 17.8495 26.3495M17.8495 4.81347C20.8714 2.57867 24.7897 1.3448 28.8495 1.34956C30.7782 1.34956 32.6298 1.6216 34.3495 2.12335V23.6594C32.5829 23.1456 30.7229 22.8839 28.8495 22.8856C24.7898 22.881 20.8715 24.1149 17.8495 26.3495M17.8495 4.81347V26.3495V4.81347Z" fill="#F0ECDD"/>
<path d="M17.8495 4.81347C14.8274 2.57879 10.9092 1.34494 6.84949 1.34956C4.92082 1.34956 3.06915 1.6216 1.34949 2.12335V23.6594C3.11612 23.1456 4.97612 22.8839 6.84949 22.8856C11.0753 22.8856 14.9308 24.1959 17.8495 26.3495M17.8495 4.81347C20.8714 2.57867 24.7897 1.3448 28.8495 1.34956C30.7782 1.34956 32.6298 1.6216 34.3495 2.12335V23.6594C32.5829 23.1456 30.7229 22.8839 28.8495 22.8856C24.7898 22.881 20.8715 24.1149 17.8495 26.3495M17.8495 4.81347V26.3495" stroke="#1A1616" stroke-width="2.05122" stroke-linecap="round" stroke-linejoin="round"/>
</svg>
