<svg width="39" height="30" viewBox="0 0 39 30" fill="none" xmlns="http://www.w3.org/2000/svg">
<path d="M19.5307 5.14367C16.2008 2.69597 11.8833 1.3445 7.4099 1.34956C5.28471 1.34956 3.24438 1.64753 1.34949 2.19711V25.7861C3.29613 25.2233 5.34565 24.9367 7.4099 24.9386C12.0663 24.9386 16.3147 26.3738 19.5307 28.7327M19.5307 5.14367C22.8606 2.69583 27.1781 1.34435 31.6515 1.34956C33.7767 1.34956 35.8171 1.64753 37.712 2.19711V25.7861C35.7653 25.2233 33.7158 24.9367 31.6515 24.9386C27.1782 24.9335 22.8607 26.285 19.5307 28.7327M19.5307 5.14367V28.7327V5.14367Z" fill="#F0ECDD"/>
<path d="M19.5307 5.14367C16.2008 2.69597 11.8833 1.3445 7.4099 1.34956C5.28471 1.34956 3.24438 1.64753 1.34949 2.19711V25.7861C3.29613 25.2233 5.34565 24.9367 7.4099 24.9386C12.0663 24.9386 16.3147 26.3738 19.5307 28.7327M19.5307 5.14367C22.8606 2.69583 27.1781 1.34435 31.6515 1.34956C33.7767 1.34956 35.8171 1.64753 37.712 2.19711V25.7861C35.7653 25.2233 33.7158 24.9367 31.6515 24.9386C27.1782 24.9335 22.8607 26.285 19.5307 28.7327M19.5307 5.14367V28.7327" stroke="#1A1616" stroke-width="2.05122" stroke-linecap="round" stroke-linejoin="round"/>
</svg>
