<svg width="38" height="29" viewBox="0 0 38 29" fill="none" xmlns="http://www.w3.org/2000/svg">
<path d="M17.8496 4.81347C14.8276 2.57879 10.9093 1.34494 6.84961 1.34956C4.92094 1.34956 3.06928 1.6216 1.34961 2.12335V23.6594C3.11625 23.1456 4.97624 22.8839 6.84961 22.8856C11.0754 22.8856 14.9309 24.1959 17.8496 26.3495M17.8496 4.81347C20.8716 2.57867 24.7899 1.3448 28.8496 1.34956C30.7783 1.34956 32.6299 1.6216 34.3496 2.12335V23.6594C32.583 23.1456 30.723 22.8839 28.8496 22.8856C24.7899 22.881 20.8717 24.1149 17.8496 26.3495M17.8496 4.81347V26.3495V4.81347Z" fill="#1A1616"/>
<path d="M17.8496 4.81347C14.8276 2.57879 10.9093 1.34494 6.84961 1.34956C4.92094 1.34956 3.06928 1.6216 1.34961 2.12335V23.6594C3.11625 23.1456 4.97624 22.8839 6.84961 22.8856C11.0754 22.8856 14.9309 24.1959 17.8496 26.3495M17.8496 4.81347C20.8716 2.57867 24.7898 1.3448 28.8496 1.34956C30.7783 1.34956 32.6299 1.6216 34.3496 2.12335V23.6594C32.583 23.1456 30.723 22.8839 28.8496 22.8856C24.7899 22.881 20.8717 24.1149 17.8496 26.3495M17.8496 4.81347V26.3495" stroke="#D0C6BD" stroke-width="2.05122" stroke-linecap="round" stroke-linejoin="round"/>
</svg>
