<svg width="25" height="31" viewBox="0 0 25 31" fill="none" xmlns="http://www.w3.org/2000/svg">
<path d="M13.2999 29.3021L13.2998 29.3022C13.0321 29.5388 12.6942 29.6661 12.3479 29.6658C12.0019 29.6655 11.6645 29.5378 11.3974 29.3012C11.3971 29.301 11.3968 29.3007 11.3965 29.3004L10.9351 28.8885C10.9347 28.8881 10.9342 28.8877 10.9338 28.8874C4.24825 22.8672 1.03329 17.4941 1.03329 12.6962C1.03329 9.59685 2.23013 6.62819 4.35458 4.44236C6.47839 2.25719 9.35468 1.03329 12.3495 1.03329C15.3444 1.03329 18.2207 2.25719 20.3445 4.44236C22.469 6.62819 23.6658 9.59685 23.6658 12.6962C23.6658 17.6051 20.3001 23.1167 13.2999 29.3021ZM12.3495 7.26378C10.9377 7.26378 9.58785 7.841 8.59567 8.86184C7.60413 9.88203 7.05043 11.2616 7.05043 12.6962C7.05043 14.1308 7.60413 15.5105 8.59567 16.5306C9.58785 17.5515 10.9377 18.1287 12.3495 18.1287C13.7613 18.1287 15.1113 17.5515 16.1034 16.5306C17.095 15.5105 17.6487 14.1308 17.6487 12.6962C17.6487 11.2617 17.095 9.88203 16.1034 8.86184C15.1113 7.841 13.7613 7.26378 12.3495 7.26378Z" fill="#1A1616" stroke="#1A1616" stroke-width="1.36748"/>
</svg>
