<svg width="25" height="31" viewBox="0 0 25 31" fill="none" xmlns="http://www.w3.org/2000/svg">
<path d="M13.6418 29.4711L13.6417 29.4712C13.3716 29.7099 13.0306 29.8385 12.6809 29.8382C12.3316 29.8379 11.991 29.7089 11.7214 29.4701C11.7212 29.4698 11.7209 29.4696 11.7207 29.4694L11.2592 29.0574C11.2589 29.0572 11.2587 29.0569 11.2584 29.0567C4.57182 23.0357 1.353 17.6592 1.353 12.8552C1.353 9.75243 2.55115 6.78041 4.67807 4.59204C6.80435 2.40433 9.68408 1.17893 12.6826 1.17893C15.6812 1.17893 18.5609 2.40433 20.6872 4.59204C22.8141 6.78041 24.0122 9.75243 24.0122 12.8552C24.0122 17.7701 20.6426 23.2851 13.6418 29.4711ZM12.6826 7.43613C11.2745 7.43613 9.92802 8.01185 8.93832 9.03015C7.94924 10.0478 7.39685 11.4241 7.39685 12.8552C7.39685 14.2864 7.94924 15.6627 8.93832 16.6803C9.92802 17.6986 11.2745 18.2744 12.6826 18.2744C14.0908 18.2744 15.4372 17.6986 16.4269 16.6803C17.416 15.6627 17.9684 14.2864 17.9684 12.8552C17.9684 11.4241 17.416 10.0478 16.4269 9.03015C15.4372 8.01185 14.0908 7.43613 12.6826 7.43613Z" fill="#F0ECDD" stroke="#1A1616" stroke-width="1.34076"/>
</svg>
