<svg width="25" height="31" viewBox="0 0 25 31" fill="none" xmlns="http://www.w3.org/2000/svg">
<path d="M13.2999 29.0479L13.2998 29.048C13.0321 29.2846 12.6942 29.412 12.3479 29.4117C12.0019 29.4113 11.6645 29.2837 11.3974 29.0471C11.3971 29.0468 11.3968 29.0465 11.3965 29.0463L10.9351 28.6343C10.9347 28.6339 10.9342 28.6336 10.9338 28.6332C4.24825 22.6131 1.03329 17.24 1.03329 12.4421C1.03329 9.3427 2.23013 6.37404 4.35458 4.18821C6.47839 2.00304 9.35468 0.779137 12.3495 0.779137C15.3444 0.779137 18.2207 2.00304 20.3445 4.1882C22.469 6.37404 23.6658 9.3427 23.6658 12.4421C23.6658 17.351 20.3001 22.8626 13.2999 29.0479ZM12.3495 7.00963C10.9377 7.00963 9.58785 7.58685 8.59567 8.60769C7.60413 9.62788 7.05043 11.0075 7.05043 12.4421C7.05043 13.8767 7.60413 15.2563 8.59567 16.2765C9.58785 17.2973 10.9377 17.8746 12.3495 17.8746C13.7613 17.8746 15.1113 17.2973 16.1034 16.2765C17.095 15.2563 17.6487 13.8767 17.6487 12.4421C17.6487 11.0075 17.095 9.62788 16.1034 8.60769C15.1113 7.58685 13.7613 7.00963 12.3495 7.00963Z" stroke="#1A1616" stroke-width="1.36748"/>
</svg>
