<svg width="28" height="33" viewBox="0 0 28 33" fill="none" xmlns="http://www.w3.org/2000/svg">
<path d="M14.7959 31.3952L14.7958 31.3952C14.4854 31.6619 14.0897 31.8083 13.6805 31.808C13.2716 31.8076 12.8763 31.6606 12.5665 31.3938C12.5663 31.3936 12.5661 31.3934 12.5659 31.3933L12.0528 30.9481C12.0524 30.9477 12.052 30.9474 12.0516 30.9471C4.61676 24.4402 1.03329 18.6256 1.03329 13.4283C1.03329 10.0735 2.36596 6.85617 4.73814 4.48399C7.11032 2.11181 10.3277 0.779137 13.6825 0.779137C17.0372 0.779137 20.2546 2.11181 22.6268 4.48399C24.9989 6.85617 26.3316 10.0735 26.3316 13.4283C26.3316 18.7458 22.5802 24.7101 14.7959 31.3952ZM13.6825 7.61653C12.1411 7.61653 10.6628 8.22884 9.57291 9.31876C8.48299 10.4087 7.87068 11.8869 7.87068 13.4283C7.87068 14.9697 8.48299 16.4479 9.57291 17.5379C10.6628 18.6278 12.1411 19.2401 13.6825 19.2401C15.2238 19.2401 16.7021 18.6278 17.792 17.5379C18.8819 16.4479 19.4942 14.9697 19.4942 13.4283C19.4942 11.8869 18.8819 10.4087 17.792 9.31876C16.7021 8.22884 15.2238 7.61653 13.6825 7.61653Z" stroke="#F0ECDD" stroke-width="1.36748"/>
</svg>
