<svg width="28" height="33" viewBox="0 0 28 33" fill="none" xmlns="http://www.w3.org/2000/svg">
<path d="M14.7959 31.6493L14.7958 31.6494C14.4854 31.916 14.0897 32.0625 13.6805 32.0621C13.2716 32.0617 12.8763 31.9148 12.5665 31.6479C12.5663 31.6478 12.5661 31.6476 12.5659 31.6474L12.0528 31.2022C12.0524 31.2019 12.052 31.2015 12.0516 31.2012C4.61676 24.6944 1.03329 18.8798 1.03329 13.6825C1.03329 10.3277 2.36596 7.11032 4.73814 4.73814C7.11032 2.36596 10.3277 1.03329 13.6825 1.03329C17.0372 1.03329 20.2546 2.36596 22.6268 4.73814C24.9989 7.11032 26.3316 10.3277 26.3316 13.6825C26.3316 18.9999 22.5802 24.9643 14.7959 31.6493ZM13.6825 7.87068C12.1411 7.87068 10.6628 8.48299 9.57291 9.57291C8.48299 10.6628 7.87068 12.1411 7.87068 13.6825C7.87068 15.2238 8.48299 16.7021 9.57291 17.792C10.6628 18.8819 12.1411 19.4942 13.6825 19.4942C15.2238 19.4942 16.7021 18.8819 17.792 17.792C18.8819 16.7021 19.4942 15.2238 19.4942 13.6825C19.4942 12.1411 18.8819 10.6628 17.792 9.57291C16.7021 8.48299 15.2238 7.87068 13.6825 7.87068Z" fill="#F0ECDD" stroke="#1A1616" stroke-width="1.36748"/>
</svg>
