<svg width="33" height="33" viewBox="0 0 33 33" fill="none" xmlns="http://www.w3.org/2000/svg">
<path d="M20.9506 7.73607C20.9506 7.16875 21.2528 6.65576 21.6022 6.2035C21.9614 5.74006 22.1694 5.19032 22.1694 4.60063C22.1694 2.94501 20.5329 1.60422 18.513 1.60422C16.4931 1.60422 14.8566 2.94661 14.8566 4.60063C14.8566 5.19032 15.0646 5.74006 15.4238 6.2035C15.7732 6.65576 16.0754 7.16875 16.0754 7.73607C16.0761 7.8731 16.0488 8.00887 15.9951 8.13533C15.9414 8.26178 15.8624 8.37633 15.7629 8.47218C15.6633 8.56803 15.5451 8.64322 15.4154 8.69329C15.2857 8.74335 15.1471 8.76728 15.0078 8.76364C12.7468 8.69958 10.4896 8.53963 8.24267 8.28421C8.54493 10.8619 8.71881 13.478 8.75456 16.126C8.75607 16.2649 8.7295 16.4027 8.6764 16.5314C8.6233 16.6601 8.54472 16.7771 8.44523 16.8757C8.34575 16.9743 8.22734 17.0524 8.09687 17.1056C7.96641 17.1588 7.82651 17.186 7.68528 17.1855C7.10838 17.1855 6.58674 16.8883 6.12685 16.5447C5.66107 16.1869 5.08795 15.9908 4.49692 15.987C2.81337 15.987 1.44995 17.5962 1.44995 19.5827C1.44995 21.5691 2.81499 23.1784 4.49692 23.1784C5.09657 23.1784 5.65559 22.9738 6.12685 22.6206C6.58674 22.277 7.10838 21.9798 7.68528 21.9798C8.18904 21.9798 8.58718 22.3953 8.5498 22.8907C8.34767 25.6003 7.99942 28.2974 7.50652 30.9706C9.97335 31.2743 12.4759 31.4644 15.0078 31.5363C15.1471 31.54 15.2857 31.5161 15.4154 31.466C15.5451 31.4159 15.6633 31.3407 15.7629 31.2449C15.8624 31.149 15.9414 31.0345 15.9951 30.908C16.0488 30.7816 16.0761 30.6458 16.0754 30.5088C16.0754 29.9415 15.7732 29.4285 15.4238 28.9762C15.0599 28.5182 14.8605 27.9545 14.8566 27.3733C14.8566 25.7193 16.4947 24.3769 18.513 24.3769C20.5329 24.3769 22.1694 25.7193 22.1694 27.3733C22.1694 27.963 21.9614 28.5128 21.6022 28.9762C21.2528 29.4285 20.9522 29.9415 20.9522 30.5088C20.9522 31.0409 21.4023 31.466 21.9435 31.4357C24.9002 31.2646 27.8447 30.9285 30.7626 30.4289C31.2042 27.933 31.5198 25.4172 31.7084 22.8907C31.7169 22.7739 31.7008 22.6567 31.6611 22.5463C31.6214 22.4359 31.5589 22.3348 31.4776 22.2493C31.3962 22.1638 31.2978 22.0957 31.1885 22.0493C31.0792 22.0029 30.9613 21.9793 30.8423 21.9798C30.2654 21.9798 29.7437 22.277 29.2838 22.6206C28.8126 22.9738 28.2536 23.1784 27.6539 23.1784C25.972 23.1784 24.6069 21.5691 24.6069 19.5827C24.6069 17.5962 25.972 15.987 27.6539 15.987C28.2552 15.987 28.8126 16.1915 29.2838 16.5447C29.7437 16.8883 30.2654 17.1855 30.8439 17.1855C30.9851 17.186 31.125 17.1588 31.2555 17.1056C31.386 17.0524 31.5044 16.9743 31.6039 16.8757C31.7033 16.7771 31.7819 16.6601 31.835 16.5314C31.8881 16.4027 31.9147 16.2649 31.9132 16.126C31.8741 13.262 31.6734 10.4024 31.3119 7.56028C28.2471 8.10682 25.1205 8.47758 21.9419 8.66136C21.8139 8.66834 21.6859 8.6495 21.5657 8.60601C21.4454 8.56253 21.3355 8.49531 21.2426 8.40849C21.1498 8.32167 21.076 8.21708 21.0257 8.10117C20.9755 7.98526 20.9499 7.86206 20.9506 7.73607Z" stroke="#F0ECDD" stroke-width="2.01114" stroke-linecap="round" stroke-linejoin="round"/>
</svg>
