<svg width="32" height="31" viewBox="0 0 32 31" fill="none" xmlns="http://www.w3.org/2000/svg">
<path d="M20.146 6.39138C20.146 5.8145 20.456 5.29288 20.8143 4.833C21.1827 4.36175 21.396 3.80275 21.396 3.20313C21.396 1.51963 19.7177 0.15625 17.646 0.15625C15.5743 0.15625 13.896 1.52125 13.896 3.20313C13.896 3.80275 14.1093 4.36175 14.4777 4.833C14.836 5.29288 15.146 5.8145 15.146 6.39138C15.1467 6.53072 15.1187 6.66878 15.0636 6.79736C15.0086 6.92594 14.9276 7.04242 14.8254 7.13989C14.7233 7.23735 14.6021 7.31381 14.4691 7.36472C14.336 7.41563 14.1939 7.43995 14.051 7.43625C11.7321 7.37112 9.41717 7.20847 7.11266 6.94875C7.42266 9.56988 7.601 12.23 7.63766 14.9226C7.63921 15.0638 7.61196 15.204 7.5575 15.3348C7.50304 15.4657 7.42245 15.5847 7.32042 15.6849C7.21838 15.7852 7.09694 15.8646 6.96313 15.9187C6.82933 15.9728 6.68584 16.0004 6.541 16C5.94933 16 5.41433 15.6978 4.94266 15.3484C4.46495 14.9846 3.87716 14.7851 3.271 14.7813C1.54433 14.7813 0.145996 16.4176 0.145996 18.4375C0.145996 20.4574 1.546 22.0938 3.271 22.0938C3.886 22.0938 4.45933 21.8858 4.94266 21.5266C5.41433 21.1773 5.94933 20.875 6.541 20.875C7.05766 20.875 7.466 21.2975 7.42766 21.8013C7.22035 24.5564 6.86318 27.299 6.35766 30.0173C8.88766 30.326 11.4543 30.5194 14.051 30.5925C14.1939 30.5962 14.336 30.5719 14.4691 30.521C14.6021 30.4701 14.7233 30.3936 14.8254 30.2961C14.9276 30.1987 15.0086 30.0822 15.0636 29.9536C15.1187 29.825 15.1467 29.687 15.146 29.5476C15.146 28.9708 14.836 28.4491 14.4777 27.9893C14.1045 27.5235 13.9 26.9504 13.896 26.3594C13.896 24.6775 15.576 23.3125 17.646 23.3125C19.7177 23.3125 21.396 24.6775 21.396 26.3594C21.396 26.959 21.1827 27.518 20.8143 27.9893C20.456 28.4491 20.1477 28.9708 20.1477 29.5476C20.1477 30.0888 20.6093 30.521 21.1643 30.4901C24.1968 30.3162 27.2167 29.9744 30.2093 29.4664C30.6621 26.9285 30.9859 24.3703 31.1793 21.8013C31.1881 21.6825 31.1715 21.5633 31.1308 21.451C31.09 21.3388 31.026 21.236 30.9426 21.149C30.8592 21.0621 30.7582 20.9929 30.6461 20.9457C30.534 20.8985 30.4131 20.8745 30.291 20.875C29.6993 20.875 29.1643 21.1773 28.6927 21.5266C28.2093 21.8858 27.636 22.0938 27.021 22.0938C25.296 22.0938 23.896 20.4574 23.896 18.4375C23.896 16.4176 25.296 14.7813 27.021 14.7813C27.6377 14.7813 28.2093 14.9893 28.6927 15.3484C29.1643 15.6978 29.6993 16 30.2927 16C30.4375 16.0004 30.581 15.9728 30.7148 15.9187C30.8486 15.8646 30.97 15.7852 31.0721 15.6849C31.1741 15.5847 31.2547 15.4657 31.3092 15.3348C31.3636 15.204 31.3909 15.0638 31.3893 14.9226C31.3493 12.0104 31.1434 9.10259 30.7727 6.21263C27.6293 6.76838 24.4227 7.14538 21.1627 7.33225C21.0315 7.33935 20.9002 7.32019 20.7768 7.27597C20.6535 7.23175 20.5407 7.1634 20.4455 7.07512C20.3503 6.98684 20.2746 6.88049 20.2231 6.76263C20.1716 6.64476 20.1453 6.51949 20.146 6.39138Z" fill="#F0ECDD"/>
</svg>
