<svg width="42" height="41" viewBox="0 0 42 41" fill="none" xmlns="http://www.w3.org/2000/svg">
<path d="M24.7077 10.4139C24.7077 9.82734 25.0257 9.29693 25.3932 8.82931C25.7709 8.35012 25.9897 7.78171 25.9897 7.17198C25.9897 5.46013 24.2684 4.07379 22.1437 4.07379C20.019 4.07379 18.2977 5.46178 18.2977 7.17198C18.2977 7.78171 18.5165 8.35012 18.8942 8.82931C19.2617 9.29693 19.5797 9.82734 19.5797 10.4139C19.5804 10.5556 19.5517 10.696 19.4952 10.8268C19.4387 10.9575 19.3557 11.0759 19.2509 11.175C19.1461 11.2742 19.0219 11.3519 18.8854 11.4037C18.749 11.4554 18.6032 11.4802 18.4566 11.4764C16.0784 11.4102 13.7042 11.2448 11.3406 10.9807C11.6586 13.646 11.8415 16.3509 11.8791 19.0889C11.8807 19.2325 11.8527 19.3749 11.7969 19.508C11.741 19.6411 11.6583 19.7621 11.5537 19.864C11.4491 19.9659 11.3245 20.0467 11.1873 20.1017C11.05 20.1567 10.9029 20.1848 10.7543 20.1844C10.1475 20.1844 9.5988 19.877 9.11506 19.5218C8.62511 19.1518 8.02227 18.9491 7.40058 18.9451C5.6297 18.9451 4.19556 20.609 4.19556 22.6629C4.19556 24.7168 5.63141 26.3808 7.40058 26.3808C8.03133 26.3808 8.61935 26.1693 9.11506 25.8041C9.5988 25.4488 10.1475 25.1415 10.7543 25.1415C11.2842 25.1415 11.703 25.5711 11.6637 26.0833C11.4511 28.8849 11.0848 31.6737 10.5663 34.4377C13.1611 34.7517 15.7935 34.9483 18.4566 35.0227C18.6032 35.0264 18.749 35.0017 18.8854 34.9499C19.0219 34.8982 19.1461 34.8204 19.2509 34.7213C19.3557 34.6222 19.4387 34.5038 19.4952 34.373C19.5517 34.2423 19.5804 34.1019 19.5797 33.9602C19.5797 33.3736 19.2617 32.8432 18.8942 32.3756C18.5115 31.9019 18.3018 31.3192 18.2977 30.7182C18.2977 29.008 20.0207 27.62 22.1437 27.62C24.2684 27.62 25.9897 29.008 25.9897 30.7182C25.9897 31.328 25.7709 31.8964 25.3932 32.3756C25.0257 32.8432 24.7094 33.3736 24.7094 33.9602C24.7094 34.5104 25.1829 34.95 25.7521 34.9186C28.8622 34.7417 31.9594 34.3942 35.0288 33.8776C35.4932 31.2969 35.8252 28.6957 36.0236 26.0833C36.0325 25.9626 36.0156 25.8414 35.9738 25.7272C35.932 25.6131 35.8663 25.5086 35.7808 25.4201C35.6952 25.3317 35.5917 25.2613 35.4767 25.2134C35.3617 25.1654 35.2377 25.141 35.1125 25.1415C34.5057 25.1415 33.957 25.4488 33.4733 25.8041C32.9775 26.1693 32.3895 26.3808 31.7588 26.3808C29.9896 26.3808 28.5538 24.7168 28.5538 22.6629C28.5538 20.609 29.9896 18.9451 31.7588 18.9451C32.3912 18.9451 32.9775 19.1566 33.4733 19.5218C33.957 19.877 34.5057 20.1844 35.1142 20.1844C35.2628 20.1848 35.4099 20.1567 35.5472 20.1017C35.6844 20.0467 35.809 19.9659 35.9136 19.864C36.0183 19.7621 36.1009 19.6411 36.1568 19.508C36.2126 19.3749 36.2406 19.2325 36.239 19.0889C36.1979 16.1276 35.9867 13.1708 35.6065 10.2322C32.3827 10.7973 29.0939 11.1806 25.7504 11.3707C25.6159 11.3779 25.4812 11.3584 25.3547 11.3134C25.2282 11.2685 25.1126 11.199 25.0149 11.1092C24.9172 11.0194 24.8396 10.9113 24.7868 10.7914C24.734 10.6716 24.707 10.5442 24.7077 10.4139Z" stroke="#1A1616" stroke-width="2.05122" stroke-linecap="round" stroke-linejoin="round"/>
</svg>
