<svg width="42" height="41" viewBox="0 0 42 41" fill="none" xmlns="http://www.w3.org/2000/svg">
<path d="M24.0995 10.2473C24.0995 9.67046 24.4095 9.14883 24.7678 8.68896C25.1362 8.21771 25.3495 7.65871 25.3495 7.05908C25.3495 5.37558 23.6712 4.01221 21.5995 4.01221C19.5278 4.01221 17.8495 5.37721 17.8495 7.05908C17.8495 7.65871 18.0628 8.21771 18.4312 8.68896C18.7895 9.14883 19.0995 9.67046 19.0995 10.2473C19.1002 10.3867 19.0722 10.5247 19.0171 10.6533C18.9621 10.7819 18.8811 10.8984 18.7789 10.9958C18.6768 11.0933 18.5556 11.1698 18.4226 11.2207C18.2895 11.2716 18.1474 11.2959 18.0045 11.2922C15.6856 11.2271 13.3707 11.0644 11.0662 10.8047C11.3762 13.4258 11.5545 16.086 11.5912 18.7786C11.5927 18.9198 11.5655 19.0599 11.511 19.1908C11.4565 19.3216 11.3759 19.4406 11.2739 19.5409C11.1719 19.6411 11.0504 19.7206 10.9166 19.7747C10.7828 19.8288 10.6393 19.8564 10.4945 19.856C9.90282 19.856 9.36782 19.5537 8.89615 19.2043C8.41844 18.8405 7.83065 18.6411 7.22449 18.6372C5.49782 18.6372 4.09949 20.2736 4.09949 22.2935C4.09949 24.3133 5.49949 25.9497 7.22449 25.9497C7.83949 25.9497 8.41282 25.7417 8.89615 25.3826C9.36782 25.0332 9.90282 24.731 10.4945 24.731C11.0112 24.731 11.4195 25.1535 11.3812 25.6572C11.1738 28.4124 10.8167 31.1549 10.3112 33.8732C12.8412 34.182 15.4078 34.3753 18.0045 34.4485C18.1474 34.4522 18.2895 34.4278 18.4226 34.3769C18.5556 34.326 18.6768 34.2496 18.7789 34.1521C18.8811 34.0546 18.9621 33.9381 19.0171 33.8096C19.0722 33.681 19.1002 33.5429 19.0995 33.4036C19.0995 32.8267 18.7895 32.3051 18.4312 31.8452C18.058 31.3794 17.8535 30.8063 17.8495 30.2153C17.8495 28.5335 19.5295 27.1685 21.5995 27.1685C23.6712 27.1685 25.3495 28.5335 25.3495 30.2153C25.3495 30.815 25.1362 31.374 24.7678 31.8452C24.4095 32.3051 24.1012 32.8267 24.1012 33.4036C24.1012 33.9447 24.5628 34.377 25.1178 34.3461C28.1503 34.1722 31.1701 33.8304 34.1628 33.3223C34.6156 30.7845 34.9394 28.2263 35.1328 25.6572C35.1415 25.5385 35.125 25.4192 35.0843 25.307C35.0435 25.1948 34.9795 25.0919 34.8961 25.005C34.8127 24.918 34.7117 24.8488 34.5996 24.8017C34.4875 24.7545 34.3666 24.7304 34.2445 24.731C33.6528 24.731 33.1178 25.0332 32.6462 25.3826C32.1628 25.7417 31.5895 25.9497 30.9745 25.9497C29.2495 25.9497 27.8495 24.3133 27.8495 22.2935C27.8495 20.2736 29.2495 18.6372 30.9745 18.6372C31.5912 18.6372 32.1628 18.8452 32.6462 19.2043C33.1178 19.5537 33.6528 19.856 34.2462 19.856C34.391 19.8564 34.5345 19.8288 34.6683 19.7747C34.8021 19.7206 34.9235 19.6411 35.0256 19.5409C35.1276 19.4406 35.2082 19.3216 35.2627 19.1908C35.3171 19.0599 35.3444 18.9198 35.3428 18.7786C35.3028 15.8664 35.0969 12.9586 34.7262 10.0686C31.5828 10.6243 28.3762 11.0013 25.1162 11.1882C24.985 11.1953 24.8536 11.1761 24.7303 11.1319C24.607 11.0877 24.4942 11.0194 24.399 10.9311C24.3038 10.8428 24.2281 10.7364 24.1766 10.6186C24.1251 10.5007 24.0988 10.3754 24.0995 10.2473Z" stroke="#1A1616" stroke-width="2.05122" stroke-linecap="round" stroke-linejoin="round"/>
</svg>
