<svg width="41" height="40" viewBox="0 0 41 40" fill="none" xmlns="http://www.w3.org/2000/svg">
<path d="M24.0995 10.2409C24.0995 9.66405 24.4095 9.14242 24.7678 8.68255C25.1362 8.2113 25.3495 7.6523 25.3495 7.05267C25.3495 5.36917 23.6712 4.0058 21.5995 4.0058C19.5278 4.0058 17.8495 5.3708 17.8495 7.05267C17.8495 7.6523 18.0628 8.2113 18.4312 8.68255C18.7895 9.14242 19.0995 9.66405 19.0995 10.2409C19.1002 10.3803 19.0722 10.5183 19.0171 10.6469C18.9621 10.7755 18.8811 10.892 18.7789 10.9894C18.6768 11.0869 18.5556 11.1634 18.4226 11.2143C18.2895 11.2652 18.1474 11.2895 18.0045 11.2858C15.6856 11.2207 13.3707 11.058 11.0662 10.7983C11.3762 13.4194 11.5545 16.0795 11.5912 18.7722C11.5927 18.9134 11.5655 19.0535 11.511 19.1844C11.4565 19.3152 11.3759 19.4342 11.2739 19.5345C11.1719 19.6347 11.0504 19.7142 10.9166 19.7683C10.7828 19.8224 10.6393 19.85 10.4945 19.8496C9.90282 19.8496 9.36782 19.5473 8.89615 19.1979C8.41844 18.8341 7.83065 18.6347 7.22449 18.6308C5.49782 18.6308 4.09949 20.2672 4.09949 22.2871C4.09949 24.3069 5.49949 25.9433 7.22449 25.9433C7.83949 25.9433 8.41282 25.7353 8.89615 25.3762C9.36782 25.0268 9.90282 24.7246 10.4945 24.7246C11.0112 24.7246 11.4195 25.1471 11.3812 25.6508C11.1738 28.406 10.8167 31.1485 10.3112 33.8668C12.8412 34.1756 15.4078 34.3689 18.0045 34.4421C18.1474 34.4458 18.2895 34.4214 18.4226 34.3705C18.5556 34.3196 18.6768 34.2431 18.7789 34.1457C18.8811 34.0482 18.9621 33.9317 19.0171 33.8032C19.0722 33.6746 19.1002 33.5365 19.0995 33.3972C19.0995 32.8203 18.7895 32.2987 18.4312 31.8388C18.058 31.373 17.8535 30.7999 17.8495 30.2089C17.8495 28.5271 19.5295 27.1621 21.5995 27.1621C23.6712 27.1621 25.3495 28.5271 25.3495 30.2089C25.3495 30.8086 25.1362 31.3676 24.7678 31.8388C24.4095 32.2987 24.1012 32.8203 24.1012 33.3972C24.1012 33.9383 24.5628 34.3706 25.1178 34.3397C28.1503 34.1658 31.1702 33.824 34.1628 33.3159C34.6156 30.7781 34.9394 28.2199 35.1328 25.6508C35.1415 25.5321 35.125 25.4128 35.0843 25.3006C35.0435 25.1884 34.9795 25.0855 34.8961 24.9986C34.8127 24.9116 34.7117 24.8424 34.5996 24.7952C34.4875 24.7481 34.3666 24.724 34.2445 24.7246C33.6528 24.7246 33.1178 25.0268 32.6462 25.3762C32.1628 25.7353 31.5895 25.9433 30.9745 25.9433C29.2495 25.9433 27.8495 24.3069 27.8495 22.2871C27.8495 20.2672 29.2495 18.6308 30.9745 18.6308C31.5912 18.6308 32.1628 18.8388 32.6462 19.1979C33.1178 19.5473 33.6528 19.8496 34.2462 19.8496C34.391 19.85 34.5345 19.8224 34.6683 19.7683C34.8021 19.7142 34.9235 19.6347 35.0256 19.5345C35.1276 19.4342 35.2082 19.3152 35.2627 19.1844C35.3171 19.0535 35.3444 18.9134 35.3428 18.7722C35.3028 15.86 35.0969 12.9521 34.7262 10.0622C31.5828 10.6179 28.3762 10.9949 25.1162 11.1818C24.985 11.1889 24.8536 11.1697 24.7303 11.1255C24.607 11.0813 24.4942 11.0129 24.399 10.9247C24.3038 10.8364 24.2281 10.73 24.1766 10.6122C24.1251 10.4943 24.0988 10.369 24.0995 10.2409Z" fill="#F0ECDD" stroke="#1A1616" stroke-width="2.05122" stroke-linecap="round" stroke-linejoin="round"/>
</svg>
