<svg width="42" height="40" viewBox="0 0 42 40" fill="none" xmlns="http://www.w3.org/2000/svg">
<path d="M24.7077 10.4075C24.7077 9.82093 25.0257 9.29052 25.3932 8.8229C25.7709 8.34371 25.9897 7.7753 25.9897 7.16557C25.9897 5.45372 24.2684 4.06738 22.1437 4.06738C20.019 4.06738 18.2977 5.45537 18.2977 7.16557C18.2977 7.7753 18.5165 8.34371 18.8942 8.8229C19.2617 9.29052 19.5797 9.82093 19.5797 10.4075C19.5804 10.5492 19.5517 10.6896 19.4952 10.8203C19.4387 10.9511 19.3557 11.0695 19.2509 11.1686C19.1461 11.2677 19.0219 11.3455 18.8854 11.3973C18.749 11.449 18.6032 11.4738 18.4566 11.47C16.0784 11.4038 13.7042 11.2384 11.3406 10.9743C11.6586 13.6396 11.8415 16.3445 11.8791 19.0825C11.8807 19.2261 11.8527 19.3685 11.7969 19.5016C11.741 19.6347 11.6583 19.7557 11.5537 19.8576C11.4491 19.9595 11.3245 20.0403 11.1873 20.0953C11.05 20.1503 10.9029 20.1784 10.7543 20.178C10.1475 20.178 9.5988 19.8706 9.11506 19.5154C8.62511 19.1454 8.02227 18.9427 7.40058 18.9387C5.6297 18.9387 4.19556 20.6026 4.19556 22.6565C4.19556 24.7104 5.63141 26.3744 7.40058 26.3744C8.03133 26.3744 8.61935 26.1629 9.11506 25.7977C9.5988 25.4424 10.1475 25.1351 10.7543 25.1351C11.2842 25.1351 11.703 25.5647 11.6637 26.0769C11.4511 28.8785 11.0848 31.6673 10.5663 34.4313C13.1611 34.7453 15.7935 34.9419 18.4566 35.0162C18.6032 35.02 18.749 34.9953 18.8854 34.9435C19.0219 34.8917 19.1461 34.814 19.2509 34.7149C19.3557 34.6158 19.4387 34.4973 19.4952 34.3666C19.5517 34.2358 19.5804 34.0955 19.5797 33.9538C19.5797 33.3672 19.2617 32.8368 18.8942 32.3692C18.5115 31.8955 18.3018 31.3128 18.2977 30.7118C18.2977 29.0016 20.0207 27.6136 22.1437 27.6136C24.2684 27.6136 25.9897 29.0016 25.9897 30.7118C25.9897 31.3216 25.7709 31.89 25.3932 32.3692C25.0257 32.8368 24.7094 33.3672 24.7094 33.9538C24.7094 34.504 25.1829 34.9435 25.7521 34.9122C28.8622 34.7353 31.9594 34.3878 35.0288 33.8712C35.4932 31.2905 35.8252 28.6893 36.0236 26.0769C36.0325 25.9562 36.0156 25.8349 35.9738 25.7208C35.932 25.6067 35.8663 25.5022 35.7808 25.4137C35.6952 25.3253 35.5917 25.2549 35.4767 25.207C35.3617 25.159 35.2377 25.1345 35.1125 25.1351C34.5057 25.1351 33.957 25.4424 33.4733 25.7977C32.9775 26.1629 32.3895 26.3744 31.7588 26.3744C29.9896 26.3744 28.5538 24.7104 28.5538 22.6565C28.5538 20.6026 29.9896 18.9387 31.7588 18.9387C32.3912 18.9387 32.9775 19.1502 33.4733 19.5154C33.957 19.8706 34.5057 20.178 35.1142 20.178C35.2628 20.1784 35.4099 20.1503 35.5472 20.0953C35.6844 20.0403 35.809 19.9595 35.9136 19.8576C36.0183 19.7557 36.1009 19.6347 36.1568 19.5016C36.2126 19.3685 36.2406 19.2261 36.239 19.0825C36.1979 16.1212 35.9867 13.1644 35.6065 10.2258C32.3827 10.7909 29.0939 11.1742 25.7504 11.3642C25.6159 11.3715 25.4812 11.352 25.3547 11.307C25.2282 11.2621 25.1126 11.1926 25.0149 11.1028C24.9172 11.013 24.8396 10.9049 24.7868 10.785C24.734 10.6652 24.707 10.5378 24.7077 10.4075Z" fill="#F0ECDD" stroke="#1A1616" stroke-width="2.05122" stroke-linecap="round" stroke-linejoin="round"/>
</svg>
