<svg width="32" height="32" viewBox="0 0 32 32" fill="none" xmlns="http://www.w3.org/2000/svg">
<path d="M30.4462 31.603L18.4244 19.5828C17.4645 20.4005 16.3606 21.0333 15.1128 21.4812C13.8649 21.9291 12.6106 22.1531 11.35 22.1531C8.27574 22.1531 5.67378 21.089 3.54409 18.9608C1.41439 16.8327 0.349548 14.2317 0.349548 11.1578C0.349548 8.08397 1.41311 5.48168 3.54025 3.35097C5.66738 1.22026 8.26806 0.153626 11.3423 0.151067C14.4165 0.148507 17.0198 1.21322 19.152 3.34521C21.2843 5.4772 22.3504 8.07949 22.3504 11.1521C22.3504 12.4855 22.1143 13.7761 21.642 15.0238C21.1697 16.2715 20.549 17.3388 19.7798 18.2256L31.8015 30.244L30.4462 31.603ZM11.3519 20.2316C13.8988 20.2316 16.049 19.355 17.8024 17.6018C19.5558 15.8486 20.4325 13.698 20.4325 11.1501C20.4325 8.60225 19.5558 6.45234 17.8024 4.70042C16.049 2.9485 13.8988 2.07191 11.3519 2.07063C8.80496 2.06935 6.65415 2.94594 4.89946 4.70042C3.14477 6.4549 2.26806 8.6048 2.26934 11.1501C2.27062 13.6955 3.14733 15.8454 4.89946 17.5999C6.65159 19.3543 8.80176 20.2309 11.35 20.2297" fill="#F0ECDD"/>
</svg>
