<svg width="33" height="33" viewBox="0 0 33 33" fill="none" xmlns="http://www.w3.org/2000/svg">
<path d="M30.9706 32.3495L18.7393 20.1198C17.7627 20.9518 16.6396 21.5956 15.37 22.0514C14.1004 22.5071 12.8243 22.7349 11.5416 22.7349C8.41384 22.7349 5.76655 21.6523 3.59975 19.4871C1.43295 17.3218 0.349548 14.6755 0.349548 11.5481C0.349548 8.42067 1.43165 5.77305 3.59584 3.60521C5.76003 1.43738 8.40603 0.352157 11.5338 0.349553C14.6616 0.346949 17.3102 1.43022 19.4796 3.59935C21.649 5.76849 22.7337 8.41612 22.7337 11.5422C22.7337 12.8989 22.4935 14.212 22.013 15.4814C21.5325 16.7509 20.9009 17.8368 20.1183 18.7391L32.3495 30.9668L30.9706 32.3495ZM11.5436 20.7799C14.1349 20.7799 16.3225 19.8881 18.1065 18.1043C19.8905 16.3206 20.7824 14.1326 20.7824 11.5403C20.7824 8.94798 19.8905 6.76062 18.1065 4.97818C16.3225 3.19573 14.1349 2.30386 11.5436 2.30256C8.95229 2.30126 6.764 3.19313 4.97874 4.97818C3.19347 6.76322 2.30149 8.95059 2.30279 11.5403C2.30409 14.13 3.19608 16.3173 4.97874 18.1024C6.7614 19.8874 8.94903 20.7793 11.5416 20.778" fill="#1A1616"/>
</svg>
