<svg width="33" height="33" viewBox="0 0 33 33" fill="none" xmlns="http://www.w3.org/2000/svg">
<path d="M30.9706 32.1511L18.7393 19.9213C17.7627 20.7533 16.6396 21.3972 15.37 21.8529C14.1004 22.3086 12.8243 22.5364 11.5416 22.5364C8.41384 22.5364 5.76655 21.4538 3.59975 19.2886C1.43295 17.1233 0.349548 14.477 0.349548 11.3496C0.349548 8.22219 1.43165 5.57456 3.59584 3.40673C5.76003 1.23889 8.40603 0.153671 11.5338 0.151067C14.6616 0.148463 17.3102 1.23173 19.4796 3.40087C21.649 5.57001 22.7337 8.21763 22.7337 11.3437C22.7337 12.7004 22.4935 14.0135 22.013 15.283C21.5325 16.5524 20.9009 17.6383 20.1183 18.5406L32.3495 30.7683L30.9706 32.1511ZM11.5436 20.5815C14.1349 20.5815 16.3225 19.6896 18.1065 17.9058C19.8905 16.1221 20.7824 13.9341 20.7824 11.3418C20.7824 8.7495 19.8905 6.56213 18.1065 4.77969C16.3225 2.99725 14.1349 2.10537 11.5436 2.10407C8.95229 2.10277 6.764 2.99464 4.97874 4.77969C3.19347 6.56474 2.30149 8.7521 2.30279 11.3418C2.30409 13.9315 3.19608 16.1188 4.97874 17.9039C6.7614 19.6889 8.94903 20.5808 11.5416 20.5795" fill="#F0ECDD"/>
</svg>
