<svg width="32" height="32" viewBox="0 0 32 32" fill="none" xmlns="http://www.w3.org/2000/svg">
<path d="M30.4462 31.8015L18.4244 19.7813C17.4645 20.599 16.3606 21.2318 15.1128 21.6797C13.8649 22.1276 12.6106 22.3515 11.35 22.3515C8.27574 22.3515 5.67378 21.2875 3.54409 19.1593C1.41439 17.0312 0.349548 14.4302 0.349548 11.3563C0.349548 8.28245 1.41311 5.68017 3.54025 3.54946C5.66738 1.41875 8.26806 0.352112 11.3423 0.349553C14.4165 0.346994 17.0198 1.41171 19.152 3.5437C21.2843 5.67569 22.3504 8.27797 22.3504 11.3505C22.3504 12.684 22.1143 13.9746 21.642 15.2223C21.1697 16.47 20.549 17.5373 19.7798 18.4241L31.8015 30.4425L30.4462 31.8015ZM11.3519 20.4301C13.8988 20.4301 16.049 19.5535 17.8024 17.8003C19.5558 16.0471 20.4325 13.8965 20.4325 11.3486C20.4325 8.80073 19.5558 6.65083 17.8024 4.89891C16.049 3.14699 13.8988 2.27039 11.3519 2.26911C8.80496 2.26783 6.65415 3.14443 4.89946 4.89891C3.14477 6.65339 2.26806 8.80329 2.26934 11.3486C2.27062 13.894 3.14733 16.0439 4.89946 17.7983C6.65159 19.5528 8.80176 20.4294 11.35 20.4281" fill="#1A1616"/>
</svg>
